<?xml version="1.0" encoding="UTF-8" standalone="no"?>
<!-- Generator: Adobe Illustrator 23.0.2, SVG Export Plug-In . SVG Version: 6.00 Build 0)  -->

<svg
   version="1.1"
   id="Layer_1"
   x="0px"
   y="0px"
   viewBox="0 0 272.36995 464.84471"
   enable-background="new 0 0 292.755 563.9388"
   xml:space="preserve"
   sodipodi:docname="iiqexplore.svg"
   width="300"
   height="512"
   inkscape:version="1.2.1 (9c6d41e410, 2022-07-14)"
   inkscape:export-filename="iiqexplore.png"
   inkscape:export-xdpi="96"
   inkscape:export-ydpi="96"
   xmlns:inkscape="http://www.inkscape.org/namespaces/inkscape"
   xmlns:sodipodi="http://sodipodi.sourceforge.net/DTD/sodipodi-0.dtd"
   xmlns="http://www.w3.org/2000/svg"
   xmlns:svg="http://www.w3.org/2000/svg"><defs
   id="defs197" /><sodipodi:namedview
   id="namedview195"
   pagecolor="#ffffff"
   bordercolor="#000000"
   borderopacity="0.25"
   inkscape:showpageshadow="2"
   inkscape:pageopacity="0.0"
   inkscape:pagecheckerboard="false"
   inkscape:deskcolor="#d1d1d1"
   showgrid="false"
   inkscape:zoom="0.91055983"
   inkscape:cx="79.621347"
   inkscape:cy="398.10673"
   inkscape:window-width="2560"
   inkscape:window-height="1351"
   inkscape:window-x="-9"
   inkscape:window-y="-9"
   inkscape:window-maximized="1"
   inkscape:current-layer="Layer_1" />
<g
   id="g192"
   transform="matrix(0.65897763,0,0,0.65897763,39.725609,46.610799)">
	<path
   d="m 261.1138,498.7754 c -1.4531,-5.8623 -44.9971,-0.2587 -101.917,12.5684 -0.2568,-6.0684 -0.6855,-12.2353 -1.247,-18.4082 L 280.606,400.3233 c -5.5762,-20.7793 -11.4219,-40.502 -17.4844,-59.2451 l -121.0078,59.1006 -9.207,4.4961 -5.7735,2.8203 c 5.835,17.1718 11.0694,32.5156 15.4541,45.3349 3.2002,19.1387 5.9678,40.6436 6.6885,60.6748 l 0.5908,-0.0214 c -3.3886,0.79 -6.8173,1.6044 -10.2802,2.4414 l -7.1114,-48.9014 c -0.5293,-3.625 -2.6347,-6.8535 -5.7392,-8.7979 L 99.3648,441.0997 c -0.2969,-0.5323 -0.6104,-1.0791 -0.9541,-1.6524 -6.5733,-9.3154 -10.9717,-21.1631 -14.3692,-32.0761 -1.2382,0.0947 -2.3964,0.1347 -3.4541,0.1347 H 80.5826 80.483 c -11.087,-0.0488 -19.4131,-3.7275 -22.4766,-5.3066 l -0.1328,-0.0684 -0.0401,-0.0185 -0.0488,-0.0284 c -2.3398,-1.2861 -4.0371,-3.4082 -4.7832,-5.9716 -0.7432,-2.5655 -0.4453,-5.2666 0.8438,-7.6084 0.5068,-0.9209 1.1582,-1.7276 1.8994,-2.4297 1.8301,-1.7315 4.2685,-2.751 6.8672,-2.751 1.6533,0 3.3007,0.4199 4.7617,1.2119 0.1963,0.0957 0.3984,0.1943 0.6797,0.3193 0.5771,0.2598 1.5302,0.6543 2.7588,1.0596 1.7607,0.5801 4.3281,1.2412 7.3183,1.4873 0.1436,0.0117 0.2871,0.0235 0.4326,0.0332 2.0879,-0.6513 4.292,-1.4384 6.5616,-2.4062 5.7011,-2.4512 11.8271,-6.0479 17.1533,-11.4639 3.5078,-3.5527 6.6103,-7.9512 8.916,-13.1348 0.2725,0.8096 0.543,1.6104 0.8144,2.4151 1.6133,-1.0772 3.5245,-1.6963 5.545,-1.6963 1.6113,0 3.2197,0.3984 4.6513,1.1533 2.3623,1.2442 4.1016,3.332 4.8936,5.8838 0.793,2.5508 0.543,5.2578 -0.7012,7.6211 -1.9922,3.7959 -4.1601,7.2598 -6.4873,10.3984 1.917,5.6582 3.7861,11.168 5.6026,16.5166 l 6.2021,-3.0293 9.1895,-4.4882 120.6562,-58.9278 C 239.0728,267.795 213.6675,212.7588 187.7496,168.6739 L 66.9175,227.6876 c 12.751,38.7822 25.9112,78.2002 38.0967,114.4062 -3.1348,0.501 -5.8008,2.8467 -6.543,6.1299 -1.416,6.1728 -4.1425,10.5752 -7.6074,14.1308 -5.1689,5.3018 -12.3281,8.4922 -18.292,10.1797 -2.9697,0.8496 -5.6035,1.335 -7.4443,1.6006 -0.8135,0.1172 -1.4619,0.1895 -1.9238,0.2354 -1.0879,-0.0723 -2.1856,0.0117 -3.2793,0.2754 -8.5508,2.0644 -17.377,11.9013 -15.0625,27.2109 3.3027,21.0332 8.0839,33.3506 20.6582,51.8467 6.8603,8.6045 13.8652,9.791 20.1699,8.331 l 22.8779,14.3145 6.6465,45.7051 C 53.1802,538.2725 6.3716,555.3652 7.9224,561.6143 c 1.6836,6.7842 59.7285,-1.7861 129.6445,-19.1387 69.9161,-17.3526 125.2305,-36.918 123.5469,-43.7002 z"
   id="path180" />
	<path
   d="m 0.6646,0.3467 c -3.1768,1.337 5.3027,33.7715 19.7246,81.4229 L 87.7749,45.4307 C 41.5777,6.4068 6.0943,-1.9384 0.6646,0.3467 Z"
   id="path182" />
	<path
   d="M 91.8414,48.919 21.8706,86.6509 c 11.8038,38.7661 27.254,86.8462 43.4717,136.2408 L 185.189,164.3585 C 153.231,110.9512 120.6187,74.0225 91.8414,48.919 Z"
   id="path184" />
	<path
   d="m 56.5279,371.0401 c 12.0312,-3.1016 19.2676,-15.3682 16.166,-27.3984 -3.1016,-12.0303 -15.3711,-19.2676 -27.4004,-16.1651 -12.0293,3.1016 -19.2676,15.3682 -16.166,27.3994 3.1035,12.0284 15.3711,19.2676 27.4004,16.1641 z"
   id="path186" />
	<path
   d="m 119.1216,383.879 c 1.9258,-2.709 3.7696,-5.6963 5.5059,-9.003 2.0576,-3.9101 0.5556,-8.748 -3.3545,-10.8047 -2.8545,-1.5019 -6.1992,-1.1005 -8.5986,0.7442 -0.8868,0.6826 -1.6495,1.5547 -2.2041,2.6103 -5.0801,9.6231 -10.5205,14.9659 -15.5713,18.0537 -5.0616,3.0694 -9.9297,4.0127 -14.4082,4.0274 -0.5557,0.001 -1.1026,-0.0176 -1.6426,-0.0469 -1.8399,-0.1006 -3.5733,-0.3603 -5.1328,-0.6953 -1.3135,-0.2812 -2.5069,-0.6143 -3.5264,-0.9502 -1.2891,-0.4238 -2.3066,-0.8447 -2.958,-1.1367 -0.3262,-0.1465 -0.5596,-0.2598 -0.6924,-0.3272 -0.0654,-0.0322 -0.1064,-0.0537 -0.1191,-0.0595 v 9e-4 c -3.2158,-1.746 -7.1006,-1.0517 -9.5371,1.4502 -0.4922,0.5059 -0.9297,1.0782 -1.2862,1.7266 -2.1298,3.8711 -0.7168,8.7344 3.1543,10.8633 0.6709,0.3262 9.2764,5.1191 21.7403,5.1748 0.0312,0 0.0644,0 0.0957,0 0.9277,0 1.8799,-0.0332 2.8486,-0.0957 6.1455,-0.4014 13.0479,-2.1514 19.7861,-6.2666 5.625,-3.418 11.0323,-8.4199 15.9004,-15.2656 z"
   id="path188" />
	<path
   d="m 266.94,487.9903 c 39.416,13.083 -50,44.666 -50,44.666 92.668,-7.3331 88.6894,-55.8437 50,-44.666 z"
   id="path190" />
</g>
<g
   id="g183"
   transform="matrix(0.65897763,0,0,0.65897763,39.725609,46.610799)">
	<path
   d="m 261.1138,498.7754 c -1.4531,-5.8623 -44.9971,-0.2587 -101.917,12.5684 -0.2568,-6.0684 -0.6855,-12.2353 -1.247,-18.4082 L 280.606,400.3233 c -5.5762,-20.7793 -11.4219,-40.502 -17.4844,-59.2451 l -121.0078,59.1006 -9.207,4.4961 -5.7735,2.8203 c 5.835,17.1718 11.0694,32.5156 15.4541,45.3349 3.2002,19.1387 5.9678,40.6436 6.6885,60.6748 l 0.5908,-0.0214 c -3.3886,0.79 -6.8173,1.6044 -10.2802,2.4414 l -7.1114,-48.9014 c -0.5293,-3.625 -2.6347,-6.8535 -5.7392,-8.7979 L 99.3648,441.0997 c -0.2969,-0.5323 -0.6104,-1.0791 -0.9541,-1.6524 -6.5733,-9.3154 -10.9717,-21.1631 -14.3692,-32.0761 -1.2382,0.0947 -2.3964,0.1347 -3.4541,0.1347 H 80.5826 80.483 c -11.087,-0.0488 -19.4131,-3.7275 -22.4766,-5.3066 l -0.1328,-0.0684 -0.0401,-0.0185 -0.0488,-0.0284 c -2.3398,-1.2861 -4.0371,-3.4082 -4.7832,-5.9716 -0.7432,-2.5655 -0.4453,-5.2666 0.8438,-7.6084 0.5068,-0.9209 1.1582,-1.7276 1.8994,-2.4297 1.8301,-1.7315 4.2685,-2.751 6.8672,-2.751 1.6533,0 3.3007,0.4199 4.7617,1.2119 0.1963,0.0957 0.3984,0.1943 0.6797,0.3193 0.5771,0.2598 1.5302,0.6543 2.7588,1.0596 1.7607,0.5801 4.3281,1.2412 7.3183,1.4873 0.1436,0.0117 0.2871,0.0235 0.4326,0.0332 2.0879,-0.6513 4.292,-1.4384 6.5616,-2.4062 5.7011,-2.4512 11.8271,-6.0479 17.1533,-11.4639 3.5078,-3.5527 6.6103,-7.9512 8.916,-13.1348 0.2725,0.8096 0.543,1.6104 0.8144,2.4151 1.6133,-1.0772 3.5245,-1.6963 5.545,-1.6963 1.6113,0 3.2197,0.3984 4.6513,1.1533 2.3623,1.2442 4.1016,3.332 4.8936,5.8838 0.793,2.5508 0.543,5.2578 -0.7012,7.6211 -1.9922,3.7959 -4.1601,7.2598 -6.4873,10.3984 1.917,5.6582 3.7861,11.168 5.6026,16.5166 l 6.2021,-3.0293 9.1895,-4.4882 120.6562,-58.9278 C 239.0728,267.795 213.6675,212.7588 187.7496,168.6739 L 66.9175,227.6876 c 12.751,38.7822 25.9112,78.2002 38.0967,114.4062 -3.1348,0.501 -5.8008,2.8467 -6.543,6.1299 -1.416,6.1728 -4.1425,10.5752 -7.6074,14.1308 -5.1689,5.3018 -12.3281,8.4922 -18.292,10.1797 -2.9697,0.8496 -5.6035,1.335 -7.4443,1.6006 -0.8135,0.1172 -1.4619,0.1895 -1.9238,0.2354 -1.0879,-0.0723 -2.1856,0.0117 -3.2793,0.2754 -8.5508,2.0644 -17.377,11.9013 -15.0625,27.2109 3.3027,21.0332 8.0839,33.3506 20.6582,51.8467 6.8603,8.6045 13.8652,9.791 20.1699,8.331 l 22.8779,14.3145 6.6465,45.7051 C 53.1802,538.2725 6.3716,555.3652 7.9224,561.6143 c 1.6836,6.7842 59.7285,-1.7861 129.6445,-19.1387 69.9161,-17.3526 125.2305,-36.918 123.5469,-43.7002 z"
   id="path170" />
	<path
   d="m 0.6646,0.3467 c -3.1768,1.337 5.3027,33.7715 19.7246,81.4229 L 87.7749,45.4307 C 41.5777,6.4068 6.0943,-1.9384 0.6646,0.3467 Z"
   id="path172" />
	<path
   d="M 91.8414,48.919 21.8706,86.6509 c 11.8038,38.7661 27.254,86.8462 43.4717,136.2408 L 185.189,164.3585 C 153.231,110.9512 120.6187,74.0225 91.8414,48.919 Z"
   id="path174" />
	<path
   d="m 56.5279,371.0401 c 12.0312,-3.1016 19.2676,-15.3682 16.166,-27.3984 -3.1016,-12.0303 -15.3711,-19.2676 -27.4004,-16.1651 -12.0293,3.1016 -19.2676,15.3682 -16.166,27.3994 3.1035,12.0284 15.3711,19.2676 27.4004,16.1641 z"
   id="path176" />
	<path
   d="m 119.1216,383.879 c 1.9258,-2.709 3.7696,-5.6963 5.5059,-9.003 2.0576,-3.9101 0.5556,-8.748 -3.3545,-10.8047 -2.8545,-1.5019 -6.1992,-1.1005 -8.5986,0.7442 -0.8868,0.6826 -1.6495,1.5547 -2.2041,2.6103 -5.0801,9.6231 -10.5205,14.9659 -15.5713,18.0537 -5.0616,3.0694 -9.9297,4.0127 -14.4082,4.0274 -0.5557,0.001 -1.1026,-0.0176 -1.6426,-0.0469 -1.8399,-0.1006 -3.5733,-0.3603 -5.1328,-0.6953 -1.3135,-0.2812 -2.5069,-0.6143 -3.5264,-0.9502 -1.2891,-0.4238 -2.3066,-0.8447 -2.958,-1.1367 -0.3262,-0.1465 -0.5596,-0.2598 -0.6924,-0.3272 -0.0654,-0.0322 -0.1064,-0.0537 -0.1191,-0.0595 v 9e-4 c -3.2158,-1.746 -7.1006,-1.0517 -9.5371,1.4502 -0.4922,0.5059 -0.9297,1.0782 -1.2862,1.7266 -2.1298,3.8711 -0.7168,8.7344 3.1543,10.8633 0.6709,0.3262 9.2764,5.1191 21.7403,5.1748 0.0312,0 0.0644,0 0.0957,0 0.9277,0 1.8799,-0.0332 2.8486,-0.0957 6.1455,-0.4014 13.0479,-2.1514 19.7861,-6.2666 5.625,-3.418 11.0323,-8.4199 15.9004,-15.2656 z"
   id="path178" />
	<path
   d="m 266.94,487.9903 c 39.416,13.083 -50,44.666 -50,44.666 92.668,-7.3331 88.6894,-55.8437 50,-44.666 z"
   id="path181" />
</g></svg>
