<?xml version="1.0" standalone="no"?>
<!DOCTYPE svg PUBLIC "-//W3C//DTD SVG 20010904//EN"
 "http://www.w3.org/TR/2001/REC-SVG-20010904/DTD/svg10.dtd">
<svg version="1.0" xmlns="http://www.w3.org/2000/svg"
 width="100.000000pt" height="100.000000pt" viewBox="0 0 100.000000 100.000000"
 preserveAspectRatio="xMidYMid meet">

<g transform="translate(0.000000,100.000000) scale(0.100000,-0.100000)"
fill="#000000" stroke="none">
<path d="M132 992 c-8 -6 -35 -143 -72 -363 -51 -302 -60 -373 -60 -479 0 -85
4 -130 12 -138 17 -17 959 -17 976 0 8 8 12 54 12 140 0 109 -9 181 -55 466
-31 185 -60 347 -65 360 l-10 22 -362 0 c-200 0 -369 -4 -376 -8z m767 -344
c28 -172 51 -316 51 -320 0 -5 -203 -8 -451 -8 l-451 0 5 28 c3 15 27 159 53
320 l49 292 346 0 346 0 52 -312z m61 -488 l0 -120 -460 0 -460 0 0 120 0 120
460 0 460 0 0 -120z"/>
<path d="M441 886 c-37 -20 -50 -55 -51 -128 0 -49 6 -79 21 -112 12 -24 19
-51 16 -60 -4 -9 -31 -27 -61 -40 -56 -25 -80 -50 -91 -98 l-7 -28 232 0 232
0 -7 28 c-11 48 -35 73 -91 98 -30 13 -57 31 -61 40 -3 8 4 34 15 57 24 50 35
146 20 188 -19 54 -112 85 -167 55z m97 -41 c34 -18 47 -44 36 -77 -3 -12 -7
-33 -9 -47 -3 -40 -16 -81 -26 -81 -12 0 -11 -57 2 -81 5 -11 33 -30 62 -43
29 -12 58 -30 66 -39 12 -16 0 -17 -169 -17 -169 0 -181 1 -169 17 8 9 34 25
59 36 25 11 53 26 63 35 22 20 22 72 -1 114 -11 20 -19 59 -21 100 -2 59 0 68
21 82 28 20 47 20 86 1z"/>
<path d="M140 150 l0 -50 270 0 270 0 0 50 c0 43 -3 50 -20 50 -16 0 -20 -7
-20 -30 0 -27 -3 -30 -30 -30 -27 0 -30 3 -30 30 0 23 -4 30 -20 30 -16 0 -20
-7 -20 -30 0 -27 -3 -30 -30 -30 -27 0 -30 3 -30 30 0 23 -4 30 -20 30 -16 0
-20 -7 -20 -30 0 -27 -3 -30 -30 -30 -27 0 -30 3 -30 30 0 23 -4 30 -20 30
-16 0 -20 -7 -20 -30 0 -27 -3 -30 -30 -30 -27 0 -30 3 -30 30 0 23 -4 30 -20
30 -16 0 -20 -7 -20 -30 0 -27 -3 -30 -30 -30 -27 0 -30 3 -30 30 0 23 -4 30
-20 30 -17 0 -20 -7 -20 -50z"/>
<path d="M790 185 c-15 -18 -10 -45 13 -59 34 -22 73 27 47 59 -16 19 -44 19
-60 0z"/>
</g>
</svg>
